<svg version="1" xmlns="http://www.w3.org/2000/svg" width="578.667" height="578.667" viewBox="0 0 434.000000 434.000000"><path d="M105 61.5c-8.3 5.8-10 7.9-10 12.4 0 4-2.4.4 57 84.1 21.1 29.7 28.4 40.1 38.7 54.7 2.9 4.1 4.1 6.7 3.6 7.6-2 3.4-74.9 102.5-77.2 105-5.2 5.7-6 5.9-34 5.7-14.1 0-35.9-.2-48.6-.4-12.6-.2-24.7 0-26.8.6-6.7 1.6-8.4 6.6-5.5 16.7 1.1 3.6 2.8 9.9 3.9 14 4.1 15.1 1.6 14.3 42.1 14.7 66.9.7 67.5.7 72.7-1.1 2.6-.8 6.7-3.1 8.9-5.1 2.3-1.9 14.8-18.6 28-37.2 13.1-18.5 33.9-47.9 46.2-65.2 18.1-25.5 43.6-61.4 69.5-98 1.7-2.5 9.9-14 18-25.5 8.2-11.6 16.5-23.3 18.5-26 2-2.8 6.1-8.5 9.1-12.8 3-4.2 8.5-12 12.2-17.2 3.8-5.2 7.2-10.7 7.6-12.3 1.4-4.7-1-8.4-9-14.1-11.2-7.9-14.6-7.1-23.4 4.9-3 4.1-6.7 9.3-8.3 11.5-1.6 2.2-20.4 27.8-41.7 57-21.4 29.1-39 53.2-39.3 53.5-.2.3-1.1-.5-1.9-1.7-1.6-2.4-60.4-82.8-85.2-116.6-9.5-12.9-10.3-13.7-14.8-13.7-2.9 0-5.4 1.2-10.3 4.5z"/><path d="M67.5 220.5c-8.6 3-12.8 10.7-11.2 20.5.6 4 4.7 8.8 9.1 11 11.8 5.7 24.7-2.1 24.9-14.9.1-12.2-11.3-20.5-22.8-16.6zM356 220.4c-5 1.5-7.4 3.5-10 7.9-2.8 4.7-3 11-.6 16 5.1 10.4 19.2 12.9 27.6 4.8 4.5-4.3 6.5-14.3 3.9-19.4-4.1-7.9-13-11.9-20.9-9.3zM237.6 247c-5.8 8.1-10.6 15.3-10.6 15.9 0 .8 18.9 27.9 35.6 51.1 1.4 1.9 10.2 14.3 19.5 27.5s18.9 25.9 21.4 28.2c8.2 7.6 7.8 7.5 65 7 44.4-.4 50.8-.7 53-2.1 3.4-2.2 3.8-3.2 8.4-19.8 4.4-16.2 4.4-18.8-.3-22.2-2.6-2-3.9-2.1-25.4-1.9-79.7.6-78.9.6-82.9-1.7-2.8-1.6-9.1-9.4-24.3-30.1-11.3-15.4-21.2-29-22-30.2-.8-1.2-7.2-9.9-14.2-19.4l-12.6-17.2-10.6 14.9z"/></svg>