<svg xmlns="http://www.w3.org/2000/svg" xmlns:xlink="http://www.w3.org/1999/xlink" viewBox="0 0 6010 3009"><defs><style>.a,.c,.g,.s{fill:none;}.b,.d,.j{fill:#faffff;}.b,.s{stroke:#000;stroke-width:4px;}.c,.g,.i{stroke:#c60c30;}.c,.j{stroke-width:30px;}.d,.j{stroke:#0039a6;}.d,.g,.i{stroke-width:5px;}.e{fill:#0039a6;}.f{fill:#c60c30;}.h{fill:#3db7e4;}.i{fill:#eceeee;}.k{clip-path:url(#a);}.l{clip-path:url(#b);}.m{clip-path:url(#c);}.n{clip-path:url(#d);}.o{clip-path:url(#e);}.p{clip-path:url(#f);}.q{clip-path:url(#g);}.r{clip-path:url(#h);}</style><clipPath id="a"><circle class="a" cx="1004" cy="804.049" r="30"/></clipPath><clipPath id="b"><circle class="a" cx="1004" cy="2204.049" r="30"/></clipPath><clipPath id="c"><circle class="a" cx="5004" cy="804.049" r="30"/></clipPath><clipPath id="d"><circle class="a" cx="5004" cy="2204.049" r="30"/></clipPath><clipPath id="e"><circle class="a" cx="2287.333" cy="804.049" r="30"/></clipPath><clipPath id="f"><circle class="a" cx="2287.333" cy="2204.049" r="30"/></clipPath><clipPath id="g"><circle class="a" cx="3716.667" cy="804.049" r="30"/></clipPath><clipPath id="h"><circle class="a" cx="3716.667" cy="2204.049" r="30"/></clipPath></defs><title>InternationalRink</title><rect class="b" x="2" y="2" width="6004" height="3004" rx="800"/><line class="c" x1="3004" y1="4.049" x2="3004" y2="3004.049"/><circle class="d" cx="3004" cy="1504.049" r="450"/><circle class="e" cx="3002" cy="1502.049" r="15"/><path class="e" d="M2873.26832,1197.5879a13.46584,13.46584,0,0,0-18.58466-3.00217l-14.40321,10.243a13.4257,13.4257,0,0,0-3.16731,18.67993l137.1357,193.36526,29.77663-40.67379Z"/><path class="e" d="M3301.24056,1576.60656l-.00423-.00423a13.856,13.856,0,0,0-10.78071-5.24639l-130.71084,1.37617h-.23289a22.92905,22.92905,0,0,1-18.26285-9.0912l-93.94352-128.32529-29.98941,42.28788L3117.65088,1619.09a40.78883,40.78883,0,0,0,32.92648,16.82316h.42344l129.54215-1.36347a13.47689,13.47689,0,0,0,12.7624-9.78563l10.2006-36.386A13.45951,13.45951,0,0,0,3301.24056,1576.60656Z"/><path class="f" d="M3167.77315,1204.82868l-14.40534-10.243a13.47177,13.47177,0,0,0-18.58466,3.00429l-130.75768,178.61006-29.77663,40.67379-107.41464,146.7247a23.40748,23.40748,0,0,1-18.52538,9.13354l-130.71507-1.37617a13.67308,13.67308,0,0,0-10.78072,5.25062,13.4621,13.4621,0,0,0-2.26539,11.77156l10.19849,36.39019a13.47871,13.47871,0,0,0,12.76452,9.7814l129.54215,1.36347h.42132a40.80286,40.80286,0,0,0,32.954-16.8655l280.5081-395.53907A13.42136,13.42136,0,0,0,3167.77315,1204.82868Z"/><path class="e" d="M2718.01948,1787.39085a44.584,44.584,0,0,1-12.97718-6.84515,2.65566,2.65566,0,0,1-.94889-1.5306,3.30143,3.30143,0,0,1,.07343-1.82047q1.0146-2.33068,4.95317-9.18742a3.41982,3.41982,0,0,1,2.91431-1.75091,4.11643,4.11643,0,0,1,2.04079.58364,44.15316,44.15316,0,0,0,9.84063,5.31842,28.16767,28.16767,0,0,0,9.69762,1.6736q6.12237-.00581,9.32656-2.26883a7.17434,7.17434,0,0,0,3.20613-6.19581,6.0318,6.0318,0,0,0-2.7713-5.24885q-2.77421-1.88425-10.49963-4.80049l-5.24885-2.04079a63.69618,63.69618,0,0,1-10.9364-5.31843,24.43227,24.43227,0,0,1-7.65683-7.796q-3.13944-4.94544-3.14042-12.38775-.0029-11.51422,7.64717-18.29754t20.33253-6.78717a45.27691,45.27691,0,0,1,14.57928,2.39638,41.75629,41.75629,0,0,1,12.54042,6.62484,2.67749,2.67749,0,0,1,.947,1.53059,3.31378,3.31378,0,0,1-.07151,1.82434q-1.31028,3.06119-4.36953,9.18742a2.93105,2.93105,0,0,1-2.76937,1.604,4.06078,4.06078,0,0,1-2.04079-.58363q-10.06189-6.5514-18.66279-6.5514-4.957.00581-7.7979,2.11809a6.94756,6.94756,0,0,0-2.84088,5.90593,7.79437,7.79437,0,0,0,3.21193,6.33881q3.20323,2.551,11.80991,5.89819,8.30811,3.20613,12.90375,5.4653a24.9827,24.9827,0,0,1,8.45884,7.1389q3.86416,4.88166,3.869,12.6042a23.74088,23.74088,0,0,1-3.8574,13.41587,25.4121,25.4121,0,0,1-10.78372,9.04441,37.37087,37.37087,0,0,1-15.81806,3.21193A46.81973,46.81973,0,0,1,2718.01948,1787.39085Z"/><path class="e" d="M2781.40379,1787.0739a2.98542,2.98542,0,0,1-.87546-2.18766l-.04444-105.54518a2.98865,2.98865,0,0,1,3.05925-3.06118l11.37122-.00387a2.98557,2.98557,0,0,1,3.06118,3.05732l.01546,32.21975a31.82045,31.82045,0,0,1,9.61645-6.63643,26.93523,26.93523,0,0,1,11.07747-2.41185,32.23549,32.23549,0,0,1,15.96687,3.85741,26.945,26.945,0,0,1,10.718,10.78372,32.69812,32.69812,0,0,1,3.79556,15.963l.02319,51.75026a2.98573,2.98573,0,0,1-3.06119,3.06119l-11.36735.00386a2.99193,2.99193,0,0,1-3.06505-3.06118l-.01933-49.56646q-.00579-7.72254-3.94243-11.87369-3.93665-4.157-11.08134-4.15115-8.60378.00579-13.62845,5.6199-5.02081,5.61217-5.02081,15.37936l.01932,44.6075a2.992,2.992,0,0,1-3.06118,3.065l-11.36929.00386A2.96566,2.96566,0,0,1,2781.40379,1787.0739Z"/><path class="e" d="M2879.94023,1785.20705a34.5368,34.5368,0,0,1-12.6158-12.45733,32.827,32.827,0,0,1-4.66908-17.05683l-.00773-19.09762a32.84886,32.84886,0,0,1,4.65362-17.05683,34.89843,34.89843,0,0,1,60.06416-.02705,32.86346,32.86346,0,0,1,4.66908,17.05683l.0116,19.09762a32.85244,32.85244,0,0,1-4.65749,17.05683,35.08871,35.08871,0,0,1-47.44836,12.48438Zm29.58759-17.36218a16.563,16.563,0,0,0,5.02467-12.1713l-.0116-19.09762a17.19985,17.19985,0,1,0-34.39968.01546l.00773,19.09762a17.21283,17.21283,0,0,0,29.37888,12.15584Z"/><path class="e" d="M2960.7531,1780.87037q-7.079-6.99783-7.08092-18.36711l-.01546-41.8362-10.06094.00387a2.998,2.998,0,0,1-3.06505-3.06119v-10.204a2.98557,2.98557,0,0,1,3.05732-3.06118l10.06094-.00387-.00774-15.74655a2.992,2.992,0,0,1,3.06119-3.065l11.37122-.00386a2.99178,2.99178,0,0,1,3.06118,3.06118l.00774,15.74655,24.63635-.01159a2.98573,2.98573,0,0,1,3.06119,3.06118l.00386,10.347a2.98571,2.98571,0,0,1-3.05732,3.065l-24.63635.0116.01546,40.96267a9.57514,9.57514,0,0,0,2.55485,6.992,9.01371,9.01371,0,0,0,6.77944,2.62442l15.30593.13915a2.98589,2.98589,0,0,1,3.06505,3.06118v10.204a2.97954,2.97954,0,0,1-3.05732,3.06119l-16.61621.00773Q2967.82243,1787.86432,2960.7531,1780.87037Z"/><path class="f" d="M3029.88282,1815.10385a2.98387,2.98387,0,0,1-.87352-2.18767l-.04639-105.54131a2.992,2.992,0,0,1,3.06119-3.06505l9.47344-.00386a2.998,2.998,0,0,1,3.06505,3.06118v6.55913a25.17355,25.17355,0,0,1,9.4-8.60378,25.65311,25.65311,0,0,1,12.02829-2.922,30.32463,30.32463,0,0,1,16.10988,4.584,34.25679,34.25679,0,0,1,11.95872,12.31045,32.82479,32.82479,0,0,1,4.45263,16.62007l.00773,20.26489a33.17746,33.17746,0,0,1-4.3676,16.6162,33.763,33.763,0,0,1-11.80412,12.32591,30.50186,30.50186,0,0,1-16.32245,4.59951,25.27233,25.27233,0,0,1-10.42426-2.25337,29.32571,29.32571,0,0,1-9.114-6.48569l.01547,31.926a2.98573,2.98573,0,0,1-3.06119,3.06119l-11.37122.00386A2.9656,2.9656,0,0,1,3029.88282,1815.10385Zm46.11876-47.18168a16.57159,16.57159,0,0,0,5.02467-12.17517l-.00773-19.3875a17.162,17.162,0,0,0-17.20757-17.19211,16.80935,16.80935,0,0,0-12.24474,5.0324,16.45349,16.45349,0,0,0-5.09811,12.17517l.01159,19.38751a16.44,16.44,0,0,0,5.10584,12.1713,16.82616,16.82616,0,0,0,12.24861,5.02467A16.58607,16.58607,0,0,0,3076.00158,1767.92217Z"/><path class="f" d="M3121.94254,1785.98007a6.06342,6.06342,0,0,1-1.82434-4.44877l-.03865-88.48834-13.26514.00773a2.98573,2.98573,0,0,1-3.06118-3.06119l-.00387-10.78758a2.99166,2.99166,0,0,1,3.05732-3.06119l24.49335-.01159a6.22909,6.22909,0,0,1,6.26924,6.26538l.03865,88.48834,13.269-.00386a2.9918,2.9918,0,0,1,3.06119,3.06118l.00386,10.78759a2.98555,2.98555,0,0,1-3.05731,3.06118l-24.49335.0116A6.06,6.06,0,0,1,3121.94254,1785.98007Z"/><path class="f" d="M3183.42907,1785.07563a34.48662,34.48662,0,0,1-12.61193-12.45346,32.86714,32.86714,0,0,1-4.67294-17.05683l-.00773-19.09762a32.85243,32.85243,0,0,1,4.65748-17.05683,34.891,34.891,0,0,1,60.0603-.02705,32.8171,32.8171,0,0,1,4.67294,17.053l.00773,19.09762a32.866,32.866,0,0,1-4.65748,17.0607,35.09149,35.09149,0,0,1-47.44837,12.48051Zm29.59146-17.35831a16.60151,16.60151,0,0,0,5.02467-12.17517l-.0116-19.09762a17.20178,17.20178,0,1,0-34.40354.01546l.00773,19.09762a17.21831,17.21831,0,0,0,29.38274,12.15971Z"/><path class="f" d="M3264.24194,1780.74282q-7.07319-6.99783-7.077-18.371l-.01933-41.83619-10.06094.00773a2.99178,2.99178,0,0,1-3.06118-3.06119l-.00387-10.20395a2.98573,2.98573,0,0,1,3.06119-3.06118l10.06094-.00773-.00773-15.74655a2.98557,2.98557,0,0,1,3.05732-3.06119l11.36735-.00386a2.98573,2.98573,0,0,1,3.065,3.05732l.00773,15.74655,24.64022-.00773a2.98556,2.98556,0,0,1,3.06119,3.05732l.00386,10.347a3.00431,3.00431,0,0,1-3.06118,3.06891l-24.64022.00773.01932,40.96268a9.59294,9.59294,0,0,0,2.55872,6.99589,8.98787,8.98787,0,0,0,6.77558,2.62056l15.30979.143a2.99177,2.99177,0,0,1,3.06505,3.05732l.00386,10.204a2.998,2.998,0,0,1-3.06118,3.065l-16.62007.00773Q3271.31707,1787.731,3264.24194,1780.74282Z"/><circle class="e" cx="2804.5704" cy="1441.42423" r="23.84798"/><circle class="f" cx="3203.48214" cy="1441.42423" r="23.84798"/><path class="g" d="M3304,3006c0-165.82031-134.17969-300-300-300s-300,134.17969-300,300"/><path class="h" d="M404,1682.049a180,180,0,0,0,0-360"/><path class="f" d="M404,1685.049v-6c97.602,0,177-79.398,177-177s-79.398-177-177-177v-6c100.908,0,183,82.092,183,183S504.908,1685.049,404,1685.049Z"/><line class="g" x1="511" y1="1628.549" x2="526" y2="1628.549"/><line class="g" x1="523.5" y1="1616.049" x2="523.5" y2="1631.049"/><line class="g" x1="511" y1="1376.549" x2="526" y2="1376.549"/><line class="g" x1="523.5" y1="1389.049" x2="523.5" y2="1374.049"/><line class="g" x1="404" y1="109" x2="404" y2="2900"/><path class="i" d="M292,1584.694c34.46149,11.80673,80.917,11.80673,112,0v-165.2899c-22.61667-11.80673-79.69-11.80673-112,0Z"/><path class="h" d="M5605,1682.049a180,180,0,0,1,0-360"/><path class="f" d="M5605,1685.049c-100.9021,0-183-82.092-183-183s82.0979-183,183-183v6c-97.60217,0-177,79.398-177,177,0,97.596,79.39783,177,177,177Z"/><line class="g" x1="5498" y1="1628.549" x2="5483" y2="1628.549"/><line class="g" x1="5485.5" y1="1616.049" x2="5485.5" y2="1631.049"/><line class="g" x1="5498" y1="1376.549" x2="5483" y2="1376.549"/><line class="g" x1="5485.5" y1="1389.049" x2="5485.5" y2="1374.049"/><line class="g" x1="5605" y1="109" x2="5605" y2="2900"/><path class="i" d="M5605,1584.694c34.46149,11.80673,80.917,11.80673,112,0v-165.2899c-22.61667-11.80673-79.69-11.80673-112,0Z"/><line class="j" x1="2137.33333" y1="4.049" x2="2137.33333" y2="3004.049"/><line class="j" x1="3866.66667" y1="4.049" x2="3866.66667" y2="3004.049"/><circle class="g" cx="1004" cy="804.049" r="450"/><g class="k"><rect class="f" x="986.5" y="774.049" width="35" height="60"/></g><circle class="g" cx="1004" cy="804.049" r="30"/><line class="g" x1="824" y1="781.5" x2="944" y2="781.5"/><line class="g" x1="941.5" y1="779.549" x2="941.5" y2="694.549"/><line class="g" x1="824" y1="826.549" x2="944" y2="826.549"/><line class="g" x1="941.5" y1="828.5" x2="941.5" y2="913.5"/><line class="g" x1="1184" y1="781.5" x2="1064" y2="781.5"/><line class="g" x1="1066.5" y1="779.549" x2="1066.5" y2="694.549"/><line class="g" x1="1184" y1="826.5" x2="1064" y2="826.5"/><line class="g" x1="1066.5" y1="828.451" x2="1066.5" y2="913.451"/><line class="g" x1="916.5" y1="1246" x2="916.5" y2="1314.049"/><line class="g" x1="1089" y1="1247" x2="1089" y2="1314.049"/><line class="g" x1="916.5" y1="362.098" x2="916.5" y2="294.049"/><line class="g" x1="1089" y1="361.098" x2="1089" y2="294.049"/><circle class="g" cx="1004" cy="2204.049" r="450"/><g class="l"><rect class="f" x="986.5" y="2174.049" width="35" height="60"/></g><circle class="g" cx="1004" cy="2204.049" r="30"/><line class="g" x1="824" y1="2181.5" x2="944" y2="2181.5"/><line class="g" x1="941.5" y1="2179.549" x2="941.5" y2="2094.549"/><line class="g" x1="824" y1="2226.549" x2="944" y2="2226.549"/><line class="g" x1="941.5" y1="2228.5" x2="941.5" y2="2313.5"/><line class="g" x1="1184" y1="2181.5" x2="1064" y2="2181.5"/><line class="g" x1="1066.5" y1="2179.549" x2="1066.5" y2="2094.549"/><line class="g" x1="1184" y1="2226.5" x2="1064" y2="2226.5"/><line class="g" x1="1066.5" y1="2228.451" x2="1066.5" y2="2313.451"/><line class="g" x1="916.5" y1="2646" x2="916.5" y2="2714.049"/><line class="g" x1="1089" y1="2647" x2="1089" y2="2714.049"/><line class="g" x1="916.5" y1="1762.098" x2="916.5" y2="1694.049"/><line class="g" x1="1089" y1="1761.098" x2="1089" y2="1694.049"/><circle class="g" cx="5004" cy="804.049" r="450"/><g class="m"><rect class="f" x="4986.5" y="774.049" width="35" height="60"/></g><circle class="g" cx="5004" cy="804.049" r="30"/><line class="g" x1="4824" y1="781.5" x2="4944" y2="781.5"/><line class="g" x1="4941.5" y1="779.549" x2="4941.5" y2="694.549"/><line class="g" x1="4824" y1="826.549" x2="4944" y2="826.549"/><line class="g" x1="4941.5" y1="828.5" x2="4941.5" y2="913.5"/><line class="g" x1="5184" y1="781.5" x2="5064" y2="781.5"/><line class="g" x1="5066.5" y1="779.549" x2="5066.5" y2="694.549"/><line class="g" x1="5184" y1="826.5" x2="5064" y2="826.5"/><line class="g" x1="5066.5" y1="828.451" x2="5066.5" y2="913.451"/><line class="g" x1="4916.5" y1="1246" x2="4916.5" y2="1314.049"/><line class="g" x1="5089" y1="1247" x2="5089" y2="1314.049"/><line class="g" x1="4916.5" y1="362.098" x2="4916.5" y2="294.049"/><line class="g" x1="5089" y1="361.098" x2="5089" y2="294.049"/><circle class="g" cx="5004" cy="2204.049" r="450"/><g class="n"><rect class="f" x="4986.5" y="2174.049" width="35" height="60"/></g><circle class="g" cx="5004" cy="2204.049" r="30"/><line class="g" x1="4824" y1="2181.5" x2="4944" y2="2181.5"/><line class="g" x1="4941.5" y1="2179.549" x2="4941.5" y2="2094.549"/><line class="g" x1="4824" y1="2226.549" x2="4944" y2="2226.549"/><line class="g" x1="4941.5" y1="2228.5" x2="4941.5" y2="2313.5"/><line class="g" x1="5184" y1="2181.5" x2="5064" y2="2181.5"/><line class="g" x1="5066.5" y1="2179.549" x2="5066.5" y2="2094.549"/><line class="g" x1="5184" y1="2226.5" x2="5064" y2="2226.5"/><line class="g" x1="5066.5" y1="2228.451" x2="5066.5" y2="2313.451"/><line class="g" x1="4916.5" y1="2646" x2="4916.5" y2="2714.049"/><line class="g" x1="5089" y1="2647" x2="5089" y2="2714.049"/><line class="g" x1="4916.5" y1="1762.098" x2="4916.5" y2="1694.049"/><line class="g" x1="5089" y1="1761.098" x2="5089" y2="1694.049"/><g class="o"><rect class="f" x="2269.833" y="774.049" width="35" height="60"/></g><circle class="g" cx="2287.333" cy="804.049" r="30"/><g class="p"><rect class="f" x="2269.833" y="2174.049" width="35" height="60"/></g><circle class="g" cx="2287.333" cy="2204.049" r="30"/><g class="q"><rect class="f" x="3699.167" y="774.049" width="35" height="60"/></g><circle class="g" cx="3716.667" cy="804.049" r="30"/><g class="r"><rect class="f" x="3699.167" y="2174.049" width="35" height="60"/></g><circle class="g" cx="3716.667" cy="2204.049" r="30"/><rect class="s" x="4" y="3" width="6004" height="3004" rx="800"/></svg>