<svg xmlns="http://www.w3.org/2000/svg" viewBox="0 0 300 300"><defs><style>.a{fill:#faffff;}.b{fill:#0039a6;}.c{fill:#c60c30;}</style></defs><title>shotplot-logo</title><circle class="a" cx="150" cy="150" r="150"/><path class="b" d="M99.73,66.8a5.17,5.17,0,0,0-7.14-1.16l-5.54,3.94a5.17,5.17,0,0,0-1.22,7.18l52.72,74.34L150,135.46Z"/><path class="b" d="M264.26,212.5h0a5.33,5.33,0,0,0-4.14-2l-50.25.53h-.09a8.8,8.8,0,0,1-7-3.49l-36.11-49.33-11.53,16.25,38.57,54.39a15.68,15.68,0,0,0,12.66,6.47h.16l49.8-.52a5.2,5.2,0,0,0,4.91-3.76l3.92-14A5.2,5.2,0,0,0,264.26,212.5Z"/><path class="c" d="M213,69.58l-5.54-3.94a5.17,5.17,0,0,0-7.14,1.16L150,135.46,138.55,151.1,97.26,207.5A9,9,0,0,1,90.14,211l-50.25-.53a5.27,5.27,0,0,0-4.15,2,5.21,5.21,0,0,0-.87,4.53l3.92,14a5.2,5.2,0,0,0,4.91,3.76l49.8.52h.16a15.7,15.7,0,0,0,12.67-6.48L214.16,76.76A5.15,5.15,0,0,0,213,69.58Z"/><circle class="b" cx="73.32" cy="160.54" r="9.17"/><circle class="c" cx="226.68" cy="160.54" r="9.17"/></svg>