<svg id="Layer_1" data-name="Layer 1" xmlns="http://www.w3.org/2000/svg" viewBox="0 0 500 500"><defs><style>.cls-1{fill:#0039a6;}.cls-2{fill:#c60c30;}</style></defs><title>Artboard 3</title><path class="cls-1" d="M155.68,93.88a9.71,9.71,0,0,0-13.41-2.16l-10.38,7.39a9.68,9.68,0,0,0-2.29,13.47l98.92,139.48L250,222.72Z"/><path class="cls-1" d="M464.39,367.28h0a10,10,0,0,0-7.78-3.79l-94.29,1h-.16A16.55,16.55,0,0,1,349,357.93l-67.76-92.57-21.63,30.51L332,397.92a29.41,29.41,0,0,0,23.75,12.14H356l93.44-1a9.71,9.71,0,0,0,9.2-7.06L466,375.77A9.71,9.71,0,0,0,464.39,367.28Z"/><path class="cls-2" d="M368.11,99.11l-10.39-7.39a9.7,9.7,0,0,0-13.4,2.16L250,222.72l-21.48,29.34L151,357.9a16.88,16.88,0,0,1-13.36,6.58l-94.29-1a9.88,9.88,0,0,0-7.78,3.79A9.71,9.71,0,0,0,34,375.77L41.33,402a9.74,9.74,0,0,0,9.21,7.06l93.44,1h.31a29.42,29.42,0,0,0,23.77-12.17L370.4,112.58A9.67,9.67,0,0,0,368.11,99.11Z"/><circle class="cls-1" cx="106.13" cy="269.77" r="17.2"/><circle class="cls-2" cx="393.87" cy="269.77" r="17.2"/></svg>